HIERARCHY
ROOT Hips
{
	OFFSET 0.000000 0.000000 0.000000
	CHANNELS 6 Xposition Yposition Zposition Zrotation Yrotation Xrotation 
	JOINT LowerBack
	{
		OFFSET 0.000000 0.000000 0.000000
		CHANNELS 3 Zrotation Yrotation Xrotation
		JOINT Spine
		{
			OFFSET 0.028270 2.035590 -0.193380
			CHANNELS 3 Zrotation Yrotation Xrotation
			JOINT Spine1
			{
				OFFSET 0.056720 2.048850 -0.042750
				CHANNELS 3 Zrotation Yrotation Xrotation
				JOINT Neck
				{
					OFFSET 0.000000 0.000000 0.000000
					CHANNELS 3 Zrotation Yrotation Xrotation
					JOINT Neck1
					{
						OFFSET -0.054170 1.746240 0.172020
						CHANNELS 3 Zrotation Yrotation Xrotation
						JOINT Head
						{
							OFFSET 0.104070 1.761360 -0.123970
							CHANNELS 3 Zrotation Yrotation Xrotation
							End Site
							{
								OFFSET 0.000000 0.000000 0.000000
							}
						}
					}
				}
				JOINT LeftShoulder
				{
					OFFSET 0.000000 0.000000 0.000000
					CHANNELS 3 Zrotation Yrotation Xrotation
					JOINT LeftArm
					{
						OFFSET 3.362410 1.200890 -0.311210
						CHANNELS 3 Zrotation Yrotation Xrotation
						JOINT LeftForeArm
						{
							OFFSET 4.983000 -0.000000 -0.000000
							CHANNELS 3 Zrotation Yrotation Xrotation
							JOINT LeftHand
							{
								OFFSET 3.483560 -0.000000 -0.000000
								CHANNELS 3 Zrotation Yrotation Xrotation
								JOINT LeftFingerBase
								{
									OFFSET 0.000000 0.000000 0.000000
									CHANNELS 3 Zrotation Yrotation Xrotation
									JOINT LeftHandIndex1
									{
										OFFSET 0.715260 -0.000000 -0.000000
										CHANNELS 3 Zrotation Yrotation Xrotation
										End Site
										{
											OFFSET 0.000000 0.000000 0.000000
										}
									}
								}
								JOINT LThumb
								{
									OFFSET 0.000000 0.000000 0.000000
									CHANNELS 3 Zrotation Yrotation Xrotation
									End Site
									{
										OFFSET 0.000000 0.000000 0.000000
									}
								}
							}
						}
					}
				}
				JOINT RightShoulder
				{
					OFFSET 0.000000 0.000000 0.000000
					CHANNELS 3 Zrotation Yrotation Xrotation
					JOINT RightArm
					{
						OFFSET -3.136600 1.374050 -0.404650
						CHANNELS 3 Zrotation Yrotation Xrotation
						JOINT RightForeArm
						{
							OFFSET -5.241900 -0.000000 -0.000000
							CHANNELS 3 Zrotation Yrotation Xrotation
							JOINT RightHand
							{
								OFFSET -3.444170 -0.000000 -0.000000
								CHANNELS 3 Zrotation Yrotation Xrotation
								JOINT RightFingerBase
								{
									OFFSET 0.000000 0.000000 0.000000
									CHANNELS 3 Zrotation Yrotation Xrotation
									JOINT RightHandIndex1
									{
										OFFSET -0.622530 -0.000000 -0.000000
										CHANNELS 3 Zrotation Yrotation Xrotation
										End Site
										{
											OFFSET 0.000000 0.000000 0.000000
										}
									}
								}
								JOINT RThumb
								{
									OFFSET 0.000000 0.000000 0.000000
									CHANNELS 3 Zrotation Yrotation Xrotation
									End Site
									{
										OFFSET 0.000000 0.000000 0.000000
									}
								}
							}
						}
					}
				}
			}
		}
	}
}
}
MOTION
Frames: 15
Frame Time: 0.008333
0.692154 17.746359 -0.986630 112.876002 87.873508 114.039077 -0.235462 -8.320040 -2.769864 0.145861 -8.468822 -2.478547 -4.367156 -8.504501 3.584832 10.090473 -25.073743 -11.334059 -1.756559 -0.077268 -0.882372 0.000000 0.000000 0.000000 10.003053 14.281513 -0.709676 -49.254843 8.991223 3.666482 -0.900151 -69.028828 -0.065236 14.353585 0.346667 0.011362 -0.216868 0.268629 -0.000000 0.000000 0.000000 0.000000 0.000000 0.000000 0.000000 15.121535 -25.227728 -0.129831 82.034448 -24.243793 -18.312125 4.109784 23.959533 0.003722 1.495717 1.282366 0.015850 0.122062 -0.011101 -0.000000 0.000000 0.000000 0.000000 0.000000 0.000000 0.000000 
0.933803 17.808424 -0.888973 115.438011 87.608935 116.259534 -0.656721 -8.458498 -2.885352 0.098881 -8.585004 -2.479319 -4.221254 -8.629702 3.620870 9.862581 -25.374431 -11.122805 -1.687413 -0.074471 -0.823831 0.000000 0.000000 0.000000 10.399131 14.329099 -0.838980 -48.564807 9.261932 3.693478 -0.857838 -70.051507 -0.062987 13.471568 0.028582 -0.028938 -0.201398 0.280588 -0.000000 0.000000 0.000000 0.000000 0.000000 0.000000 0.000000 14.748611 -25.618539 -0.169326 82.267821 -25.441136 -18.807131 4.181111 23.749747 0.003173 1.803251 1.050512 0.015839 0.122983 -0.007655 -0.000000 0.000000 0.000000 0.000000 0.000000 0.000000 0.000000 
1.173215 17.861582 -0.792652 116.375581 87.355456 116.870202 -1.087308 -8.573928 -2.981697 0.047799 -8.675882 -2.477645 -4.079242 -8.730433 3.651109 9.649292 -25.598773 -10.929696 -1.623438 -0.071826 -0.771234 0.000000 0.000000 0.000000 10.787821 14.387703 -0.947781 -48.104574 9.546169 3.483794 -0.823863 -70.868183 -0.060600 12.629623 -0.264655 -0.061340 -0.186084 0.291548 0.000000 0.000000 0.000000 0.000000 0.000000 0.000000 0.000000 14.391981 -25.916488 -0.200829 82.451624 -26.501251 -19.291311 4.256685 23.435652 0.002483 2.157667 0.779982 0.014225 0.123386 -0.004088 -0.000000 0.000000 0.000000 0.000000 0.000000 0.000000 0.000000 
1.409812 17.904844 -0.697681 116.015224 87.120610 116.191153 -1.523277 -8.666637 -3.044198 -0.008316 -8.742035 -2.470254 -3.946976 -8.806575 3.675412 9.461430 -25.750206 -10.760808 -1.565511 -0.069296 -0.726081 0.000000 0.000000 0.000000 11.153518 14.453129 -1.032835 -47.837992 9.853821 3.052639 -0.796650 -71.486093 -0.058189 11.849826 -0.511564 -0.084436 -0.171759 0.301092 0.000000 0.000000 0.000000 0.000000 0.000000 0.000000 0.000000 14.068001 -26.125689 -0.223668 82.581186 -27.401301 -19.753201 4.336042 23.022004 0.001657 2.573821 0.474940 0.010509 0.123129 -0.000439 -0.000000 0.000000 0.000000 0.000000 0.000000 0.000000 0.000000 
1.643151 17.937288 -0.604051 114.581834 86.903458 114.442017 -1.963069 -8.736946 -3.061427 -0.070670 -8.784099 -2.454583 -3.829682 -8.858021 3.694039 9.307332 -25.833685 -10.620093 -1.514320 -0.066866 -0.689297 0.000000 0.000000 0.000000 11.476031 14.523662 -1.091495 -47.717955 10.185356 2.425120 -0.774961 -71.913488 -0.055871 11.154217 -0.695617 -0.098518 -0.159189 0.308860 0.000000 0.000000 0.000000 0.000000 0.000000 0.000000 0.000000 13.789467 -26.251758 -0.237847 82.656238 -28.125494 -20.189072 4.417416 22.523040 0.000714 3.048805 0.142693 0.003890 0.122207 0.003201 -0.000000 0.000000 0.000000 0.000000 0.000000 0.000000 0.000000 
1.872989 17.958040 -0.511609 112.234445 86.691124 111.777101 -2.412841 -8.785824 -3.023648 -0.141683 -8.802944 -2.428414 -3.730984 -8.884968 3.707593 9.192696 -25.856992 -10.509503 -1.469872 -0.064489 -0.661290 0.000000 0.000000 0.000000 11.735599 14.599339 -1.122063 -47.692649 10.533390 1.634496 -0.757874 -72.159597 -0.053767 10.564248 -0.804598 -0.103987 -0.149021 0.314575 0.000000 0.000000 0.000000 0.000000 0.000000 0.000000 0.000000 13.564327 -26.303595 -0.243856 82.680393 -28.665577 -20.594384 4.497538 21.960924 -0.000307 3.561249 -0.204097 -0.006029 0.120750 0.006689 -0.000000 0.000000 0.000000 0.000000 0.000000 0.000000 0.000000 
2.099000 17.966329 -0.420164 109.149284 86.466067 108.363768 -2.880933 -8.814374 -2.918160 -0.224270 -8.799501 -2.389063 -3.654026 -8.887575 3.716216 9.122001 -25.826342 -10.429319 -1.432600 -0.062176 -0.642128 0.000000 0.000000 0.000000 11.913967 14.681808 -1.123576 -47.709455 10.883137 0.717233 -0.745019 -72.234155 -0.052014 10.100907 -0.831092 -0.102140 -0.141765 0.318063 0.000000 0.000000 0.000000 0.000000 0.000000 0.000000 0.000000 13.400563 -26.288611 -0.242996 82.662224 -29.020760 -20.971982 4.571707 21.367850 -0.001345 4.077248 -0.551206 -0.019149 0.118954 0.009853 -0.000000 0.000000 0.000000 0.000000 0.000000 0.000000 0.000000 
2.321144 17.961476 -0.329678 105.526132 86.214880 104.401111 -3.367953 -8.822311 -2.742298 -0.319164 -8.773820 -2.336281 -3.600544 -8.865337 3.720109 9.095350 -25.748045 -10.378081 -1.402458 -0.059942 -0.631376 0.000000 0.000000 0.000000 11.995583 14.773641 -1.096080 -47.722292 11.217326 -0.287379 -0.736423 -72.146384 -0.050743 9.782610 -0.772082 -0.093876 -0.137801 0.319246 0.000000 0.000000 0.000000 0.000000 0.000000 0.000000 0.000000 13.298500 -26.213133 -0.236490 82.613402 -29.199212 -21.322355 4.634808 20.783742 -0.002334 4.554554 -0.882310 -0.034468 0.117072 0.012517 -0.000000 0.000000 0.000000 0.000000 0.000000 0.000000 0.000000 
2.539795 17.942886 -0.239838 101.538575 85.912995 100.070729 -3.886192 -8.809547 -2.505882 -0.428598 -8.725322 -2.272417 -3.569072 -8.817611 3.719577 9.109211 -25.632358 -10.352194 -1.377704 -0.057695 -0.627928 0.000000 0.000000 0.000000 11.974941 14.875094 -1.041405 -47.695384 11.523935 -1.337787 -0.731913 -71.905902 -0.050070 9.623185 -0.628653 -0.079993 -0.137297 0.318139 0.000000 0.000000 0.000000 0.000000 0.000000 0.000000 0.000000 13.248875 -26.087250 -0.225089 82.544843 -29.217394 -21.619555 4.681556 20.247155 -0.003188 4.944755 -1.174558 -0.049884 0.115389 0.014541 -0.000000 0.000000 0.000000 0.000000 0.000000 0.000000 0.000000 
2.754926 17.910372 -0.151116 97.442081 85.571670 95.629499 -4.410741 -8.774012 -2.211148 -0.547601 -8.653912 -2.198930 -3.561367 -8.743901 3.713721 9.159994 -25.479215 -10.349609 -1.359660 -0.055598 -0.631265 0.000000 0.000000 0.000000 11.842666 14.989763 -0.960772 -47.602904 11.783048 -2.400440 -0.732381 -71.522721 -0.050086 9.632050 -0.407389 -0.060896 -0.140332 0.314862 0.000000 0.000000 0.000000 0.000000 0.000000 0.000000 0.000000 13.250553 -25.909109 -0.210620 82.469694 -29.092747 -21.870278 4.707666 19.807813 -0.003848 5.215318 -1.415873 -0.063596 0.114065 0.015799 -0.000000 0.000000 0.000000 0.000000 0.000000 0.000000 0.000000 
2.967128 17.863796 -0.063508 93.377087 85.182096 91.234140 -4.940195 -8.715012 -1.878550 -0.674712 -8.559136 -2.120641 -3.574741 -8.644161 3.702542 9.240773 -25.297057 -10.366607 -1.346733 -0.053595 -0.640197 0.000000 0.000000 0.000000 11.603836 15.116515 -0.857467 -47.433296 11.987821 -3.440923 -0.737923 -71.007567 -0.050824 9.809201 -0.117514 -0.036383 -0.146710 0.309581 0.000000 0.000000 0.000000 0.000000 0.000000 0.000000 0.000000 13.290051 -25.685829 -0.193729 82.394856 -28.847456 -22.034679 4.709892 19.503137 -0.004258 5.334924 -1.587512 -0.072905 0.113283 0.016245 -0.000000 0.000000 0.000000 0.000000 0.000000 0.000000 0.000000 
3.176805 17.803379 0.022553 89.461092 84.757056 87.014504 -5.452015 -8.631651 -1.524961 -0.804168 -8.441596 -2.041862 -3.608033 -8.519371 3.685542 9.344778 -25.089128 -10.401059 -1.339069 -0.051765 -0.654015 0.000000 0.000000 0.000000 11.262737 15.255369 -0.734532 -47.186047 12.129642 -4.433010 -0.749132 -70.371802 -0.052246 10.146871 0.227506 -0.005957 -0.156097 0.302524 0.000000 0.000000 0.000000 0.000000 0.000000 0.000000 0.000000 13.359106 -25.418784 -0.175620 82.323164 -28.500278 -22.086618 4.686946 19.367484 -0.004396 5.291845 -1.680276 -0.076506 0.113108 0.015873 -0.000000 0.000000 0.000000 0.000000 0.000000 0.000000 0.000000 
3.384387 17.729836 0.106104 85.726165 84.326154 83.012700 -5.908441 -8.523434 -1.164242 -0.927008 -8.303094 -1.966377 -3.660999 -8.371744 3.662197 9.465392 -24.856587 -10.452614 -1.337959 -0.050265 -0.672481 0.000000 0.000000 0.000000 10.822381 15.408025 -0.594841 -46.872681 12.198525 -5.358379 -0.766972 -69.626337 -0.054259 10.627844 0.608755 0.030580 -0.168010 0.293967 0.000000 0.000000 0.000000 0.000000 0.000000 0.000000 0.000000 13.453293 -25.107161 -0.157952 82.249013 -28.063884 -22.003712 4.639425 19.426526 -0.004271 5.089762 -1.693026 -0.074003 0.113524 0.014726 -0.000000 0.000000 0.000000 0.000000 0.000000 0.000000 0.000000 
3.590307 17.643906 0.186546 82.145875 83.897176 79.213360 -6.294661 -8.391071 -0.812787 -1.038794 -8.144947 -1.898020 -3.730857 -8.203336 3.632679 9.595176 -24.605029 -10.520554 -1.342982 -0.049098 -0.695196 0.000000 0.000000 0.000000 10.294791 15.573608 -0.442217 -46.513581 12.193276 -6.202525 -0.791963 -68.781915 -0.056678 11.226307 1.007106 0.073127 -0.181758 0.284177 0.000000 0.000000 0.000000 0.000000 0.000000 0.000000 0.000000 13.563108 -24.755714 -0.141310 82.161857 -27.544845 -21.747762 4.569287 19.684627 -0.003913 4.740239 -1.627077 -0.065997 0.114494 0.012890 -0.000000 0.000000 0.000000 0.000000 0.000000 0.000000 0.000000 
3.794999 17.546849 0.262909 78.649146 83.489167 75.552039 -6.584725 -8.235248 -0.480837 -1.133235 -7.969079 -1.839378 -3.816526 -8.016632 3.597065 9.728119 -24.336486 -10.605402 -1.355339 -0.048392 -0.722145 0.000000 0.000000 0.000000 9.687970 15.752793 -0.280007 -46.136749 12.111357 -6.958934 -0.825205 -67.846983 -0.059268 11.909225 1.399916 0.120382 -0.196569 0.273407 0.000000 0.000000 0.000000 0.000000 0.000000 0.000000 0.000000 13.685969 -24.365786 -0.126874 82.043454 -26.941910 -21.300884 4.479879 20.135217 -0.003372 4.267450 -1.493032 -0.054288 0.115893 0.010457 -0.000000 0.000000 0.000000 0.000000 0.000000 0.000000 0.000000 
